<?xml version="1.0" encoding="UTF-8"?>
<svg id="Layer_1" data-name="Layer 1" xmlns="http://www.w3.org/2000/svg" viewBox="0 0 1176.21 602.75">
  <defs>
    <style>
      .cls-1 {
        fill: #fff;
      }
    </style>
  </defs>
  <path class="cls-1"
    d="m495,3.32c1.99,2.22,2.99,5.75,2.99,10.61v18.57c0,4.87-.99,8.4-2.99,10.61-1.99,2.22-6.08,3.32-12.26,3.32h-166.44v519.2c0,13.26-2.65,22.76-7.96,28.51-5.3,5.74-15.03,8.62-29.18,8.62h-61.01c-14.15,0-23.87-2.88-29.18-8.62-5.3-5.75-7.96-15.25-7.96-28.51V46.42H15.25c-6.2,0-10.28-1.1-12.27-3.32-1.99-2.21-2.99-5.74-2.99-10.61V13.92C0,9.07.99,5.53,2.99,3.32,4.97,1.11,9.06,0,15.25,0h467.48c6.18,0,10.28,1.11,12.26,3.32Z" />
  <path class="cls-1"
    d="m590.81,419.74v145.88c0,13.26-2.65,22.76-7.96,28.51-5.3,5.74-15.03,8.62-29.18,8.62h-61.01c-14.15,0-23.87-2.88-29.18-8.62-5.3-5.75-7.96-15.25-7.96-28.51V37.13c0-13.26,2.65-22.76,7.96-28.51,5.31-5.74,15.02-8.62,29.18-8.62h165.77c43.32,0,79.79,5.42,109.41,16.25,29.61,10.84,53.6,25.64,71.95,44.43,18.34,18.8,31.5,40.78,39.46,65.98,7.96,25.2,11.93,51.95,11.93,80.24,0,22.11-2.43,43.33-7.29,63.66-4.87,20.34-12.6,39.24-23.21,56.69-10.61,17.47-24.43,32.94-41.44,46.42-17.02,13.49-37.69,24.2-62,32.16l154.5,182.35c2.65,3.53,3.42,6.85,2.32,9.95-1.11,3.09-4.76,4.64-10.94,4.64h-26.52c-7.08,0-11.94-.66-14.59-1.99-2.65-1.33-6.41-4.64-11.27-9.95l-148.53-173.07c-13.26,1.33-27.63,1.99-43.1,1.99h-68.3Zm0-373.32v326.91h31.16c24.31,0,44.98-3.65,62-10.94,17.01-7.29,30.94-18.01,41.78-32.16,10.83-14.14,18.67-31.5,23.54-52.05,4.86-20.56,7.29-44.1,7.29-70.62,0-51.72-10.51-91.51-31.5-119.36-21-27.85-55.6-41.78-103.77-41.78h-30.5Z" />
  <path class="cls-1"
    d="m830.73,266.56h210.2V37.13c0-13.26,2.65-22.76,7.96-28.51,5.3-5.74,15.02-8.62,29.18-8.62h61.01c14.14,0,23.87,2.88,29.18,8.62,5.3,5.75,7.96,15.25,7.96,28.51v528.49c0,13.26-2.65,22.76-7.96,28.51-5.3,5.74-15.03,8.62-29.18,8.62h-61.01c-14.15,0-23.87-2.88-29.18-8.62-5.3-5.75-7.96-15.25-7.96-28.51v-252.64h-210.2" />
</svg>