<?xml version="1.0" encoding="UTF-8"?>
<svg id="Layer_1" data-name="Layer 1" xmlns="http://www.w3.org/2000/svg" viewBox="0 0 118.85 74.83">
  <defs>
    <style>
      .cls-1 {
        fill: #fff;
      }
    </style>
  </defs>
  <path class="cls-1" d="m34.39,8.46c-.57-.05-1.05.42-1.05,1v65.37h-16.71c0-.3.02-.6.02-.9,0-17.33,0-34.67,0-52,0-4.31,0-8.61,0-12.92,0-.22,0-.45,0-.67-.41,0-.76,0-1.11,0-5.07,0-10.14,0-15.21,0-.18,0-.32-.14-.32-.32C.01,5.43,0,2.85,0,.26,0,.09.04,0,.23,0c.34.01.68,0,1.02,0,21.63,0,43.25,0,64.88,0,.97,0,1.94.06,2.91.2s1.85.31,2.74.59c4.91,1.52,9.42,6.18,10.77,10.98.37,1.31.59,2.63.67,3.98.09,1.55.02,3.11.07,4.65.03.89-.05,1.79-.2,2.67-.17.99-.34,1.98-.62,2.94-.47,1.64-1.27,3.14-2.18,4.59-1.63,2.62-3.86,4.47-6.81,5.41-.73.23-1.48.39-2.21.59l-.81.15-.84.08v.13c.28,0,.56.01.85.02.34-.02.68-.03,1.01-.05,1.02.02,2.03.03,3.05.06.48.02.97.05,1.45.09,1.12.11,2.23.44,3.18,1.05,2.76,1.76,4.11,4.28,4.11,7.51,0,9.45,0,18.9,0,28.34,0,.27,0,.54.01.81h-16.65c0-.7-.02-1.4-.02-2.09,0-7.66,0-15.31,0-22.97,0-.9-.16-1.78-.45-2.62-.53-1.57-1.53-2.81-2.81-3.84-1.5-1.2-3.42-1.74-5.34-1.74l-22.44.14v-8l22.35-.43c1.01.01,2-.1,2.96-.42,3.22-1.08,5.77-4.38,5.72-8.49-.03-2.66,0-5.16.02-7.75,0-.96-.14-1.91-.48-2.8-.81-2.13-2.3-3.65-4.31-4.67-1.32-.67-2.75-.79-4.2-.81l-23.23.12Zm51.16,40.93c.06,0,.12,0,.18,0,5.39,0,10.77,0,16.16,0,.09,0,.17,0,.27.01,0,.1,0,.18,0,.26,0,8.11,0,16.22,0,24.33,0,.28-.01.56-.02.84h16.71V0c-.17,0-.35.01-.52.01-5.3,0-10.6,0-15.9,0-.25,0-.3.1-.29.32.02.56.02,1.12.02,1.67,0,13.1,0,26.19,0,39.29,0,.08.41.33.4.42h-17.8c1,2,.74,5.04.74,7.64.02.01.03.03.05.04Zm-15.09-12.6c0,.08,0,.15,0,.23.34-.02.68-.03,1.01-.05-.02-.12-.04-.25-.07-.37-.32.06-.63.13-.95.19Zm-.84.08v.13c.28,0,.56.01.85.02,0-.08,0-.15,0-.23-.28.03-.56.05-.84.08Zm15.89,12.48s.03.03.05.04c-.02-.01-.03-.03-.05-.04Zm17.56-7.64l-.91-.42v.42h.91Z"/>
</svg>